<?xml version="1.0" standalone="no"?>
<!DOCTYPE svg PUBLIC "-//W3C//DTD SVG 1.1//EN" "http://www.w3.org/Graphics/SVG/1.1/DTD/svg11.dtd">
<svg xmlns="http://www.w3.org/2000/svg">
<defs >
<font id="Manuale" horiz-adv-x="501" ><font-face
    font-family="Manuale"
    units-per-em="1000"
    panose-1="0 0 0 0 0 0 0 0 0 0"
    ascent="980"
    descent="-236"
    alphabetic="0" />
<glyph unicode=" " horiz-adv-x="185" />
<glyph unicode="!" horiz-adv-x="231" d="M77 187L128 611H232L118 187H77ZM72 -9Q49 -9 34 7T18 47Q18 70 33 86T72 102Q95 102 112 86T129 47Q129 24 112 8T72 -9Z" />
<glyph unicode="&quot;" horiz-adv-x="309" d="M71 467L81 697H173L94 467H71ZM204 467L213 697H304L226 467H204Z" />
<glyph unicode="#" horiz-adv-x="568" d="M96 -9L145 169H16L30 222H158L189 333H62L76 386H204L254 563H308L259 386H398L448 563H504L455 386H572L557 333H440L408 222H526L512 169H394L345 -9H290L339 169H198L150 -9H96ZM213 222H354L385 333H245L213 222Z" />
<glyph unicode="$" horiz-adv-x="492" d="M162 -116L184 2Q141 2 99 10T25 32L58 146H93L95 63Q111 59 137 54T195 49Q263 49 302 84T342 172Q342 201 327 223T278 259L180 300Q147 314 127 337T107 405Q107 467 132 512T202 583T309 612L328 713H368L349 612Q382
611 414 604T475 587L443 463H410L406 556Q394 560 368 562T325 564Q294 564 268 556T223 533T194 495T184 443Q184 413 202 395T254 362L348 321Q385 305 403 279T422 212Q422 154 399 110T331 39T224 3L203 -116H162Z" />
<glyph unicode="%" horiz-adv-x="882" d="M246 0L588 611H642L300 0H246ZM192 177Q156 177 128 191T83 236T66 319Q66 373 79 427T119 527T186 599T279 627Q333 627 369 596T405 485Q405 418 388 362T341 264T273 200T192 177ZM206 246Q231 246 257 260T307 302T344
369T358 460Q358 501 344 522T310 551T267 559Q227 559 198 540T150 489T122 420T113 347Q113 306 127 284T162 254T206 246ZM612 -8Q576 -8 547 6T502 51T485 135Q485 201 502 257T549 354T617 419T699 442Q753 442 789 411T825 301Q825 234 808 178T761 80T693
15T612 -8ZM627 61Q652 61 678 75T727 117T764 185T778 276Q778 317 765 338T730 366T688 374Q663 374 636 361T586 320T549 254T534 162Q534 122 548 100T583 70T627 61Z" />
<glyph unicode="&amp;" horiz-adv-x="580" d="M220 -9Q125 -9 75 31T24 153Q24 202 43 243T102 315T200 360Q171 380 154 405T137 472Q137 514 154 542T198 589T256 615T314 623Q355 623 385 619T440 608T491 591L456 461H419L415 558Q396 565 375 569T326 574Q298
574 273 564T232 529T216 465Q216 430 233 410T274 382T322 371L314 326Q256 326 210 312T137 262T110 155Q110 106 146 73T251 39Q284 39 318 46T368 59L399 224L313 229L306 273H577V215L481 220L446 38Q412 22 354 7T220 -9Z" />
<glyph unicode="&apos;" horiz-adv-x="180" d="M101 467L111 697H203L125 467H101Z" />
<glyph unicode="(" horiz-adv-x="290" d="M182 -181Q98 -155 65 -112T31 10Q31 58 41 120T67 264Q88 372 108 448T157 575T233 658T355 711L361 684Q317 666 286 637T233 570T196 484T168 381T144 264Q130 193 120 131T109 16Q109 -24 117 -56T145 -113T198 -154L182
-181Z" />
<glyph unicode=")" horiz-adv-x="290" d="M-65 -181L-71 -154Q-27 -137 4 -108T56 -41T93 45T121 147T145 264Q159 335 169 399T180 512Q180 552 172 585T144 643T91 684L107 711Q190 686 223 642T257 517Q257 470 248 408T222 264Q201 157 181 81T132 -45T56
-128T-65 -181Z" />
<glyph unicode="*" horiz-adv-x="318" d="M115 431L59 477L165 567L164 572L46 591L83 667L185 612L191 613L196 738H273L231 613L235 610L358 667L367 591L240 572L237 567L306 477L237 431L199 541H195L115 431Z" />
<glyph unicode="+" horiz-adv-x="509" d="M228 117V281H63V334H228V500H280V334H447V281H280V117H228Z" />
<glyph unicode="," horiz-adv-x="176" d="M-2 -120L-28 -115L18 105L111 127L125 108L-2 -120Z" />
<glyph unicode="-" horiz-adv-x="281" d="M2 212L11 261H275L266 212H2Z" />
<glyph unicode="." horiz-adv-x="198" d="M61 -9Q36 -9 18 9T-1 52Q-1 77 17 95T61 113Q87 113 105 95T124 52Q124 27 106 9T61 -9Z" />
<glyph unicode="/" horiz-adv-x="353" d="M35 -68L273 669H334L95 -68H35Z" />
<glyph unicode="0" horiz-adv-x="492" d="M198 -11Q146 -11 111 9T59 75T41 197Q41 277 55 354T101 492T180 590T297 627Q340 627 374 608T428 544T449 422Q449 328 432 249T381 112T302 21T198 -11ZM208 67Q262 67 302 108T364 225T387 400Q387 462 373 494T334
539T283 551Q236 551 202 524T146 450T114 343T103 218Q103 157 118 125T157 80T208 67Z" />
<glyph unicode="1" horiz-adv-x="492" d="M1 0L7 33L175 60L262 541H104L111 578L361 614L260 60L399 33L393 0H1Z" />
<glyph unicode="2" horiz-adv-x="492" d="M12 0L2 50L236 254Q282 294 311 330T353 404T367 482Q367 516 345 540T267 565Q252 565 229 561T177 549T121 529L111 568Q137 582 165 595T227 618T300 627Q346 627 381 614T438 572T459 491Q459 448 440 403T382 309T284
212L102 62H340L400 155H430L395 0H12Z" />
<glyph unicode="3" horiz-adv-x="492" d="M111 -9Q74 -9 50 -7T-4 1L3 47Q37 43 55 42T89 41Q152 41 200 60T277 115T305 205Q305 245 282 265T220 294T134 302V345Q196 352 238 373T301 427T323 499Q323 531 305 550T237 569Q205 569 176 562T111 541L100 582Q125
596 149 606T200 621T263 627Q306 627 341 616T396 580T417 519Q417 471 393 435T332 374T257 335Q323 323 358 289T394 206Q394 147 359 98T261 20T111 -9Z" />
<glyph unicode="4" horiz-adv-x="492" d="M245 0L268 130H1L-5 173L371 620L431 613L355 190H433L422 130H345L322 0H245ZM74 190H279L334 497L74 190Z" />
<glyph unicode="5" horiz-adv-x="492" d="M110 -9Q88 -9 63 -8T9 0L17 47Q38 44 52 43T78 42T104 41Q165 41 213 63T289 124T318 214Q318 261 292 288T214 328T88 341L82 362L153 611H454L442 544H185L144 395Q229 395 281 380T362 340T400 286T410 227Q410 157
373 104T269 21T110 -9Z" />
<glyph unicode="6" horiz-adv-x="492" d="M195 -12Q153 -12 123 1T73 39T45 95T36 165Q36 250 66 326T149 465T270 570T415 631L420 594Q341 568 287 525T200 428T148 318Q178 341 217 358T307 376Q359 376 387 357T426 308T437 242Q437 214 431 180T408 113T365
51T296 5T195 -12ZM216 39Q261 39 290 64T333 131T347 227Q347 253 342 274T322 308T276 321Q243 321 215 310T167 285T134 259Q129 231 127 203T124 149Q124 121 132 96T161 55T216 39Z" />
<glyph unicode="7" horiz-adv-x="492" d="M142 -20L64 5L420 551H153L116 473H83L103 611H487L498 579L142 -20Z" />
<glyph unicode="8" horiz-adv-x="492" d="M185 -13Q128 -13 94 3T44 46T29 104Q29 147 48 184T103 254T187 312Q155 335 129 368T102 450Q102 502 129 542T204 604T313 627Q371 627 402 610T445 566T457 514Q457 487 444 455T399 391T310 330Q359 293 382 256T406
178Q406 123 381 80T306 12T185 -13ZM198 36Q256 36 291 67T326 146Q326 172 318 194T287 238T224 288Q196 271 170 248T128 193T111 114Q111 74 134 55T198 36ZM273 353Q332 387 353 421T375 497Q375 520 370 538T347 568T296 579Q270 579 243 569T198 536T180
476Q180 454 192 432T225 389T273 353Z" />
<glyph unicode="9" horiz-adv-x="492" d="M54 -15L48 22Q109 30 158 53T246 114T312 197T354 298Q326 274 287 257T201 239Q119 239 87 284T55 403Q55 426 62 455T86 515T130 570T198 611T293 627Q346 627 383 604T441 541T461 450Q461 341 426 256T332 111T201
19T54 -15ZM232 294Q258 294 283 304T331 327T366 349Q371 373 373 397T375 447Q375 492 365 520T332 562T276 576Q232 576 203 553T159 491T145 403Q145 357 166 326T232 294Z" />
<glyph unicode=":" horiz-adv-x="260" d="M136 362Q108 362 90 380T71 427Q71 454 89 474T136 495Q164 495 184 475T204 427Q204 399 184 381T136 362ZM82 -9Q55 -9 36 10T17 57Q17 86 36 105T82 124Q109 124 129 105T149 57Q149 29 129 10T82 -9Z" />
<glyph unicode=";" horiz-adv-x="260" d="M24 -120L-2 -115L44 105L137 127L151 108L24 -120ZM132 362Q104 362 86 380T67 427Q67 454 85 474T132 495Q160 495 180 475T200 427Q200 399 180 381T132 362Z" />
<glyph unicode="&lt;" horiz-adv-x="521" d="M417 119L64 308L417 497L447 447L173 308L447 169L417 119Z" />
<glyph unicode="=" horiz-adv-x="521" d="M69 363V417H453V363H69ZM69 200V252H453V200H69Z" />
<glyph unicode="&gt;" horiz-adv-x="521" d="M104 119L75 169L348 308L75 447L104 497L457 308L104 119Z" />
<glyph unicode="?" horiz-adv-x="370" d="M129 159Q101 159 86 171T71 207Q71 230 102 261T180 329Q222 363 249 393T288 449T301 494Q301 539 276 558T212 578Q185 578 158 572T112 560T94 554L83 585Q96 594 120 604T176 621T240 628Q305 628 347 593T389 502Q389
469 372 438T318 372T219 292Q182 266 159 244T135 205Q135 195 142 191T157 185T165 184L158 162Q158 162 149 161T129 159ZM95 -9Q72 -9 56 7T40 46Q40 69 56 85T95 102Q118 102 134 86T151 46Q151 23 135 7T95 -9Z" />
<glyph unicode="@" horiz-adv-x="752" d="M281 -83Q198 -83 139 -52T49 37T18 175Q18 246 48 314T133 438T265 527T434 560Q511 560 566 541T657 488T710 415T727 333Q727 278 707 228T650 137T563 74T454 51Q430 51 421 66T412 103Q412 111 413 120T416 139Q393
96 361 74T294 51Q260 51 238 68T206 113T195 176Q195 221 210 266T256 348T331 407T431 430Q442 430 453 429T474 427T492 423L508 448Q508 448 513 448T525 449Q530 449 536 448T542 442Q542 442 537 423T523 373T506 305T489 233T476 169T471 126Q471 113 475
108T490 102Q527 102 557 122T608 177T640 250T652 329Q652 382 626 424T552 492T437 517Q363 517 301 490T192 415T121 305T95 170Q95 73 144 20T294 -34Q333 -34 372 -30T454 -15T544 15L556 -13Q493 -47 426 -65T281 -83ZM318 109Q353 109 380 145T427 242T457
376Q444 381 432 383T408 385Q375 385 350 365T307 313T281 245T272 177Q272 144 283 127T318 109Z" />
<glyph unicode="A" horiz-adv-x="550" d="M-46 0L-41 35L31 48L314 615L367 626L446 52L508 35L502 0H298L303 36L365 48L342 223H175L88 47L155 37L146 0H-46ZM196 266H336L307 489L196 266Z" />
<glyph unicode="B" horiz-adv-x="515" d="M-8 0L-2 33L85 53L183 558L104 578L110 611H334Q422 611 461 579T501 496Q501 448 481 413T426 355T347 323Q411 309 442 277T473 194Q473 140 441 96T352 26T222 0H-8ZM218 41Q246 41 275 49T330 77T371 126T387 201Q387
249 352 274T250 299H211L162 49Q176 45 190 43T218 41ZM219 337H264Q295 337 322 346T371 373T405 420T417 485Q417 528 392 548T323 568Q305 568 292 567T262 561L219 337Z" />
<glyph unicode="C" horiz-adv-x="524" d="M262 -9Q184 -9 136 19T65 97T42 211Q42 293 66 367T134 500T243 592T386 626Q445 626 483 618T549 599L514 469H481V566Q462 572 440 575T383 578Q318 578 271 546T193 462T147 345T132 217Q132 164 146 124T194 61T284
39Q303 39 326 42T376 54L416 138H450L436 23Q396 8 356 0T262 -9Z" />
<glyph unicode="D" horiz-adv-x="608" d="M-8 0L-2 33L86 53L184 558L104 578L110 611H362Q481 611 535 555T590 402Q590 328 568 257T504 127T399 35T254 0H-8ZM256 41Q311 41 352 64T421 125T468 211T494 308T502 401Q502 480 465 522T347 564Q318 564 297 562T262
558L165 58Q182 51 206 46T256 41Z" />
<glyph unicode="E" horiz-adv-x="517" d="M-8 0L-2 33L91 53L189 558L104 578L110 611H519L494 479H456V559H267L222 323H358L391 389H425L390 208H356L346 277H213L170 56H373L415 147H452L424 0H-8Z" />
<glyph unicode="F" horiz-adv-x="474" d="M-8 0L-2 33L91 53L189 558L104 578L110 611H519L494 479H455V559H267L220 313H354L387 379H421L386 198H352L347 267H211L169 54L282 34L276 0H-8Z" />
<glyph unicode="G" horiz-adv-x="572" d="M275 -11Q190 -11 139 18T65 96T42 209Q42 289 64 364T131 498T244 592T405 627Q431 627 461 624T520 615T568 597L529 470H494L490 567Q474 572 450 575T396 578Q330 578 284 551T208 480T162 387T139 293T132 219Q132
173 145 131T193 63T288 37Q313 37 335 41T379 56L414 234L334 254L340 288H569L563 254L492 234L453 31Q417 11 372 0T275 -11Z" />
<glyph unicode="H" horiz-adv-x="660" d="M-7 0L-1 33L81 53L179 559L105 578L110 611H345L340 578L257 559L212 329H479L524 559L449 578L455 611H690L684 578L602 559L504 53L580 33L574 0H338L344 33L426 53L470 280H203L159 53L234 33L228 0H-7Z" />
<glyph unicode="I" horiz-adv-x="325" d="M-8 0L-2 33L86 53L184 558L104 578L110 611H357L351 578L262 558L164 53L245 33L239 0H-8Z" />
<glyph unicode="J" horiz-adv-x="295" d="M-10 -149Q-42 -149 -63 -141T-98 -122L-89 -94H-21Q25 -94 44 -59T74 30L170 558L90 578L96 611H342L336 578L249 558L159 63Q144 -19 121 -65T65 -130T-10 -149Z" />
<glyph unicode="K" horiz-adv-x="559" d="M-8 0L-2 33L86 53L184 558L104 578L110 611H357L351 578L262 558L216 324L463 558L405 578L411 611H603L597 578L526 558L292 333L432 52L514 33L508 0H364L214 312L164 53L245 33L239 0H-8Z" />
<glyph unicode="L" horiz-adv-x="454" d="M-8 0L-2 33L86 53L184 558L104 578L110 611H357L351 578L262 558L164 56H345L386 147H422L394 0H-8Z" />
<glyph unicode="M" horiz-adv-x="794" d="M309 -10L238 511L135 53L214 33L208 0H-3L3 33L83 53L197 559L126 578L132 611H302L369 118L624 611H807L801 578L712 558L632 53L714 33L708 0H459L465 33L553 53L626 508L358 0L309 -10Z" />
<glyph unicode="N" horiz-adv-x="682" d="M470 -8L216 488L132 53L209 33L203 0H-8L-2 33L77 53L175 559L104 578L110 611H240L489 130L572 559L496 578L502 611H711L705 578L624 559L516 0L470 -8Z" />
<glyph unicode="O" horiz-adv-x="622" d="M262 -9Q184 -9 136 20T66 100T43 215Q43 294 65 367T131 499T238 592T385 626Q464 626 512 598T581 520T603 406Q603 326 581 252T517 119T410 26T262 -9ZM271 39Q325 39 365 62T434 125T481 211T507 308T515 401Q515
450 503 490T459 554T373 578Q314 578 272 550T203 478T161 385T139 290T132 217Q132 166 145 126T188 62T271 39Z" />
<glyph unicode="P" horiz-adv-x="515" d="M-8 0L-2 33L87 53L184 554L103 576L110 611H325Q410 611 460 579T510 480Q510 422 489 379T434 307T360 264T279 249Q268 249 256 250T231 253T205 259L165 53L269 34L263 0H-8ZM267 289Q292 289 319 298T369 329T408
385T423 473Q423 523 396 546T325 569Q312 569 295 567T263 559L212 297Q225 292 239 291T267 289Z" />
<glyph unicode="Q" horiz-adv-x="630" d="M466 -151Q450 -151 436 -148T403 -136T356 -109L192 -2Q117 37 80 89T43 221Q43 302 66 374T133 504T241 593T385 626Q464 626 512 598T582 520T604 406Q604 325 581 252T516 123T415 35T284 3L289 0Q324 -19 357 -37T418
-68T467 -90T496 -98H572L570 -126Q552 -134 522 -142T466 -151ZM272 39Q326 39 366 62T435 125T482 211T508 308T516 401Q516 450 504 490T460 554T374 578Q315 578 273 550T204 478T162 385T140 291T133 218Q133 166 146 126T189 62T272 39Z" />
<glyph unicode="R" horiz-adv-x="535" d="M-8 0L-2 33L89 53L187 558L104 578L110 611H338Q401 611 438 594T493 550T510 488Q510 465 502 436T475 379T424 327T341 292Q359 285 369 273T387 237T406 169T438 55L512 33L506 0H369Q347 83 334 135T311 218T294
260T275 276T247 279H211L167 53L250 33L244 0H-8ZM219 319H276Q320 319 353 340T406 398T426 482Q426 526 404 547T326 569Q313 569 297 567T265 559L219 319Z" />
<glyph unicode="S" horiz-adv-x="474" d="M159 -11Q122 -11 80 -4T3 20L39 138H74L77 52Q91 48 117 43T174 38Q248 38 288 76T329 172Q329 200 314 227T261 272L182 309Q164 318 144 334T108 375T93 435Q93 521 148 574T318 627Q356 627 394 620T466 600L431 470H396L392
567Q379 572 356 574T315 577Q252 577 210 548T168 456Q168 425 187 405T238 370L309 336Q353 315 379 279T405 199Q405 134 376 87T292 15T159 -11Z" />
<glyph unicode="T" horiz-adv-x="482" d="M53 0L59 33L164 53L262 559H132L96 471H62L81 611H543L510 471H473V559H340L242 53L338 33L332 0H53Z" />
<glyph unicode="U" horiz-adv-x="599" d="M255 -10Q187 -10 149 11T95 68T79 152Q79 178 82 206T92 264L149 559L75 578L80 611H316L311 578L228 559L171 264Q166 236 162 210T158 162Q158 109 181 75T268 41Q326 41 362 66T418 135T450 237L512 559L435 578L441
611H654L648 578L569 559L506 236Q500 203 486 161T444 80T371 16T255 -10Z" />
<glyph unicode="V" horiz-adv-x="569" d="M212 -10L133 558L70 578L76 611H278L272 578L213 558L273 101L500 558L436 578L442 611H634L628 578L556 558L272 2L212 -10Z" />
<glyph unicode="W" horiz-adv-x="806" d="M203 -9L134 558L70 578L76 611H279L273 578L215 558L260 132L450 559L505 570L548 129L734 558L671 578L677 611H871L865 578L793 558L543 2L493 -9L444 455L460 456L255 2L203 -9Z" />
<glyph unicode="X" horiz-adv-x="522" d="M-48 0L-42 33L27 53L231 307L129 558L70 578L76 611H274L268 578L211 558L289 363L447 558L388 578L394 611H588L582 578L513 558L310 311L420 52L480 33L474 0H271L277 33L337 52L252 254L93 53L153 33L147 0H-48Z" />
<glyph unicode="Y" horiz-adv-x="535" d="M79 0L85 33L189 53L222 224L130 558L70 578L76 611H270L264 578L205 558L280 280L463 558L400 578L406 611H600L594 578L522 558L299 224L266 53L363 33L357 0H79Z" />
<glyph unicode="Z" d="M13 0L2 33L405 558H182L146 479H110L127 611H515L513 579L110 54H350L403 147H439L401 0H13Z" />
<glyph unicode="[" horiz-adv-x="290" d="M6 -166L174 696H363L357 663L238 656L87 -124L202 -132L195 -166H6Z" />
<glyph unicode="\" horiz-adv-x="354" d="M284 -138L14 696H70L342 -138H284Z" />
<glyph unicode="]" horiz-adv-x="290" d="M-65 -166L-58 -132L60 -124L211 656L96 663L102 696H291L123 -166H-65Z" />
<glyph unicode="^" horiz-adv-x="521" d="M56 252L233 610H290L466 252H397L262 532L125 252H56Z" />
<glyph unicode="_" horiz-adv-x="452" d="M-53 -59L-46 -19H394L386 -59H-53Z" />
<glyph unicode="`" horiz-adv-x="250" d="M298 558L84 661V679L160 707L314 577L298 558Z" />
<glyph unicode="a" horiz-adv-x="513" d="M150 -8Q119 -8 93 5T50 51T34 142Q34 255 69 335T168 457T319 500Q340 500 367 496T416 485L438 524L469 516L408 202Q398 152 393 109T387 50H466V20Q425 6 400 -1T355 -8Q330 -8 320 3T309 33Q309 36 310 46T313 69T316
94Q294 64 264 41T204 5T150 -8ZM183 53Q202 53 229 69T281 109T321 154L375 429Q362 440 343 446T308 452Q260 452 224 426T165 356T130 257T118 144Q118 92 136 73T183 53Z" />
<glyph unicode="b" horiz-adv-x="521" d="M210 -8Q152 -8 111 4T49 27L174 660L99 670L94 692Q123 703 151 710T204 722T242 727Q252 727 256 722T261 706Q261 701 257 677T247 619T233 547T219 478T209 425T205 403Q227 434 260 456T328 492T386 505Q416 505
439 493T477 451T491 368Q491 320 483 268T455 166T404 78T324 15T210 -8ZM220 37Q272 37 307 66T364 142T395 244T405 353Q405 405 387 424T340 444Q326 444 306 435T265 410T225 377T195 343L140 66Q150 53 174 45T220 37Z" />
<glyph unicode="c" horiz-adv-x="392" d="M177 -9Q135 -9 103 7T52 58T34 148Q34 216 50 280T98 394T181 475T298 505Q327 505 355 500T407 482L383 368H350L340 453Q330 457 319 458T299 459Q254 459 221 432T166 361T133 266T122 165Q122 98 141 69T213 40Q234
40 258 45T307 59L318 24Q284 7 247 -1T177 -9Z" />
<glyph unicode="d" horiz-adv-x="538" d="M137 -8Q107 -8 83 4T46 46T32 130Q32 252 70 335T173 462T314 505Q340 505 357 503T391 496L424 660L348 669L343 692Q372 702 401 710T454 722T492 727Q500 727 505 722T510 709Q510 706 506 680T493 610T476 514T456
405T436 296T418 201Q413 173 409 150T401 103T395 49H475V20Q434 6 409 -1T364 -8Q339 -8 329 3T319 33Q319 36 320 51T323 79T325 93Q303 63 268 41T197 5T137 -8ZM183 53Q197 53 217 62T259 87T300 120T329 154L383 433Q372 445 351 452T304 459Q265 459 235
440T182 389T146 315T125 230T118 144Q118 92 135 73T183 53Z" />
<glyph unicode="e" horiz-adv-x="408" d="M194 -9Q140 -9 105 8T53 62T35 155Q35 217 50 279T99 392T185 474T312 505Q354 505 385 481T417 407Q417 330 342 285T126 239Q122 217 120 197T118 159Q118 113 129 88T168 53T244 42Q263 42 283 47T321 60L328 27Q295
9 261 0T194 -9ZM135 273Q229 273 284 305T340 400Q340 423 328 440T290 457Q232 457 193 409T135 273Z" />
<glyph unicode="f" horiz-adv-x="296" d="M-26 -167Q-52 -167 -85 -160T-144 -140L-134 -101Q-107 -108 -85 -111T-45 -114Q5 -114 28 -86T61 0L137 440H52L47 462L148 488L161 553Q170 602 187 641T239 703T338 727Q361 727 390 718T445 698L433 652Q412 660
394 663T355 666Q319 666 296 656T258 620T236 546L227 493H335V440H218L138 -7Q125 -82 87 -124T-26 -167Z" />
<glyph unicode="g" d="M143 -178Q107 -178 63 -170T-15 -147L-2 -101Q21 -110 58 -115T127 -121Q183 -121 219 -102T277 -39T309 80Q287 54 259 39T203 17T153 11Q121 11 94 22T51 64T35 153Q35 222 51 285T102 398T191 476T322 505Q345 505 368 501T406 492T422
487L444 522L476 514L379 5Q372 -34 354 -67T306 -125T236 -164T143 -178ZM187 73Q207 73 234 81T288 110T327 163L381 433Q369 444 349 450T308 456Q262 456 230 435T176 379T143 304T127 227T122 163Q122 108 139 91T187 73Z" />
<glyph unicode="h" horiz-adv-x="543" d="M37 -9L167 659L92 669L88 691Q116 702 144 710T197 722T237 727Q247 727 251 721T255 703Q255 700 252 683T244 638T233 578T220 510T207 443T195 384Q226 418 266 445T346 489T416 505Q442 505 459 491T476 443Q476
433 470 402T455 328T434 235T413 137T395 49H480V19Q451 6 425 -1T377 -9Q359 -9 345 -4T322 13T314 43Q314 51 319 78T333 143T351 223T369 303T383 369T389 406Q389 424 380 431T356 438Q335 438 304 424T242 386T185 331L131 7L37 -9Z" />
<glyph unicode="i" horiz-adv-x="292" d="M108 -9Q83 -9 73 2T62 33Q62 40 67 69T81 143T100 240T120 343T139 438L63 445L59 470Q87 480 116 488T169 500T208 505Q218 505 222 500T227 483Q227 479 221 448T206 368T185 263T163 150T143 49H228V19Q186 5 157
-2T108 -9ZM209 580Q185 580 167 596T149 637Q149 662 167 679T209 697Q232 697 250 680T269 637Q269 612 251 596T209 580Z" />
<glyph unicode="j" horiz-adv-x="277" d="M-23 -167Q-54 -167 -78 -160T-117 -145T-131 -138L-123 -101Q-106 -105 -87 -108T-47 -112Q0 -112 29 -89T70 0L146 438L70 445L66 470Q91 480 121 488T177 500T214 505Q234 505 234 482Q234 480 229 447T214 361T194
243T171 113T149 -10Q136 -83 93 -125T-23 -167ZM210 580Q186 580 168 596T150 637Q150 662 168 679T210 697Q233 697 251 680T270 637Q270 612 252 596T210 580Z" />
<glyph unicode="k" horiz-adv-x="493" d="M39 -9L169 659L93 669L89 692Q132 708 174 717T238 727Q249 727 253 721T257 704Q257 696 252 666T238 591T219 493T198 385Q210 402 234 423T290 462T355 493T419 505Q448 505 465 488T482 439Q482 382 439 331T290
249L371 49H445V19Q403 5 374 -2T326 -9Q316 -9 303 9T277 57T252 120T230 183T215 231T209 250L215 262Q272 276 313 301T378 356T401 411Q401 427 394 433T366 440Q342 440 309 424T242 384T188 333L134 7L39 -9Z" />
<glyph unicode="l" horiz-adv-x="290" d="M105 -9Q78 -9 68 2T57 35Q57 39 59 53T65 91T76 152T92 236T112 347T138 487T170 657L93 667L88 689Q117 701 146 709T202 722T243 727Q254 727 258 720T262 705Q262 701 262 697T261 689L141 51H230V21Q187 6 156 -1T105 -9Z" />
<glyph unicode="m" horiz-adv-x="787" d="M57 -9L146 436L70 444L66 468Q94 478 122 486T174 499T213 504Q218 504 221 501T227 493T229 480Q229 473 226 454T220 415T214 384Q240 415 278 442T355 487T425 505Q451 505 462 491T474 443Q474 437 472 423T466 391Q493
420 529 446T604 488T671 505Q697 505 708 491T719 443Q719 433 714 402T699 327T680 234T658 136T639 49H724V19Q695 6 669 -1T621 -9Q603 -9 589 -4T566 13T558 43Q558 51 563 78T577 143T595 223T613 303T627 369T633 406Q633 424 630 431T611 439Q590 439 562
424T505 385T455 337L396 7L302 -9Q313 45 324 101T347 209T367 303T381 372T387 406Q387 424 384 431T365 439Q344 439 314 423T255 382T205 331L152 7L57 -9Z" />
<glyph unicode="n" horiz-adv-x="565" d="M57 -9L145 437L70 445L66 470Q94 480 122 487T175 500T215 505Q225 505 229 499T234 481Q234 474 231 455T224 416T217 385Q248 419 288 446T368 490T437 506Q465 506 481 492T498 444Q498 434 493 403T478 328T458 235T436
137T416 48H502V19Q474 6 447 -1T399 -9Q371 -9 354 3T336 43Q336 51 341 78T355 143T373 223T391 303T405 370T411 408Q411 425 402 432T378 440Q356 440 325 426T263 388T206 331L152 6L57 -9Z" />
<glyph unicode="o" horiz-adv-x="497" d="M184 -9Q107 -9 71 29T34 143Q34 258 70 338T169 462T314 505Q366 505 399 488T448 438T465 355Q465 241 429 160T330 35T184 -9ZM203 40Q251 40 285 70T339 149T369 253T379 357Q379 401 362 428T297 455Q258 455 229
435T179 382T145 307T126 221T120 138Q120 94 138 67T203 40Z" />
<glyph unicode="p" horiz-adv-x="537" d="M37 -177L146 440L72 447L67 471Q95 481 123 489T175 501T213 506Q223 506 227 500T231 482Q231 469 228 448T222 411T218 394Q244 425 275 450T340 490T403 506Q447 506 476 476T506 368Q506 296 491 230T444 112T358
30T229 0Q203 0 186 2T153 9L129 -162L37 -177ZM239 45Q286 45 318 68T371 128T402 208T417 289T421 354Q421 388 413 408T391 437T358 446Q344 446 324 436T281 410T240 377T210 344L163 71Q175 61 196 53T239 45Z" />
<glyph unicode="q" horiz-adv-x="512" d="M272 -178L324 89Q299 59 266 37T200 4T140 -8Q110 -8 86 3T47 43T33 126Q33 219 53 290T111 408T201 480T319 505Q355 505 381 501T429 489L452 522L484 514L374 -62L363 -162L272 -178ZM185 53Q210 53 239 68T294 105T334
150L389 430Q382 441 358 450T309 460Q266 460 235 439T181 384T146 307T127 222T121 140Q121 88 138 71T185 53Z" />
<glyph unicode="r" horiz-adv-x="389" d="M57 -9L146 437L70 445L66 470Q94 480 122 488T175 500T215 505Q224 505 228 499T233 483Q233 471 229 449T219 396T206 329Q235 390 265 431T335 492T430 513L400 364H363L351 436Q330 431 304 409T249 343T187 228L152
7L57 -9Z" />
<glyph unicode="s" horiz-adv-x="390" d="M142 -9Q111 -9 74 -3T7 20L38 140H68L75 54Q90 48 108 44T155 39Q207 39 238 61T269 132Q269 153 256 170T211 202L135 237Q110 249 88 275T66 344Q66 390 89 426T154 484T255 505Q284 505 317 498T380 476L347 370H318L310
444Q299 450 279 453T244 457Q193 457 165 434T136 375Q136 348 151 333T195 304L267 269Q300 253 322 228T344 157Q344 81 291 36T142 -9Z" />
<glyph unicode="t" horiz-adv-x="336" d="M117 -9Q91 -9 81 2T71 34Q71 42 76 73T90 149T109 247T130 349T148 439H60L56 462L158 490L229 600H260L241 493H348V439H231L153 50H258V19Q214 5 176 -2T117 -9Z" />
<glyph unicode="u" horiz-adv-x="549" d="M146 -8Q129 -8 112 -2T84 21T73 74Q73 98 81 143T102 242T125 348T143 437L67 445L63 469Q91 479 120 487T173 500T212 505Q222 505 228 499T234 483Q234 478 228 450T213 381T194 295T175 207T160 135T154 96Q154 76
165 66T193 56Q215 56 245 66T307 101T364 167L422 489L507 505L444 202Q436 162 432 127T426 71T423 50H502V20Q460 6 436 -1T391 -8Q365 -8 355 3T345 33Q345 36 346 46T349 69T352 94Q324 61 288 39T215 4T146 -8Z" />
<glyph unicode="v" horiz-adv-x="444" d="M92 -9Q95 25 96 56T98 116T99 171Q99 266 95 336T85 437L9 445L5 469Q47 484 90 494T156 505Q161 505 164 475T171 394T176 281T178 153Q178 139 178 125T178 97T177 69Q250 128 290 191T345 311T361 407Q361 418 360
426T357 438L301 445L296 469Q338 484 372 494T429 505Q431 495 432 485T433 465Q433 396 415 335T367 220T302 125T234 53T177 7L92 -9Z" />
<glyph unicode="w" horiz-adv-x="703" d="M90 -9Q93 14 95 43T98 100T99 148Q99 249 95 326T85 437L9 445L5 469Q47 484 88 494T152 505Q155 505 158 490T165 445T172 377T176 291T178 192Q178 179 178 164T178 132T177 100T175 70Q231 114 270 168T329 275T350
369Q350 387 347 408T337 450T324 489L409 504Q414 491 421 449T433 342T439 194Q439 167 439 133T436 69Q484 105 519 149T576 240T609 328T620 405Q620 416 620 423T617 438L561 445L556 469Q598 484 632 494T688 505Q690 495 691 485T692 465Q692 391 669 322T609
192T526 84T437 7L355 -9Q358 15 360 48T364 116T365 182T363 236Q356 211 337 181T290 119T235 58T180 7L90 -9Z" />
<glyph unicode="x" horiz-adv-x="432" d="M39 -25L-13 24L178 232L132 423Q131 430 129 434T121 439L40 447L36 471Q64 481 92 488T145 500T183 505Q188 505 193 490T205 446T223 373L240 301L397 514L445 470L251 249L303 50H396V20Q370 10 353 4T321 -4T290
-7Q271 -7 258 -2T235 22T215 78T190 179L39 -25Z" />
<glyph unicode="y" horiz-adv-x="464" d="M77 -178L128 -17L131 88Q131 123 130 159T126 232T118 305T106 374T88 437L11 445L5 470Q47 486 87 495T151 505Q157 505 165 479T182 409T196 308T206 190T206 70Q259 118 293 166T347 260T373 343T381 408Q381 419
380 425T377 438L321 445L316 469Q358 484 392 494T449 505Q451 496 452 487T453 464Q453 385 428 314T363 182T282 77T205 4L164 -162L77 -178Z" />
<glyph unicode="z" horiz-adv-x="392" d="M261 -40Q236 -40 212 -29T163 -3T115 23T67 35Q56 35 45 29T25 15T10 -1L-17 15L302 420H71L62 493H336L395 509L415 482L83 61L67 87Q104 93 131 88T181 72T222 49T261 28T307 19Q318 19 333 23T359 33L367 1Q344 -14
318 -27T261 -40Z" />
<glyph unicode="{" horiz-adv-x="290" d="M167 -192L17 -157L112 217L47 252L50 267L128 302L178 674L343 711L348 684L250 647L202 291L95 259L190 228L99 -129L183 -166L167 -192Z" />
<glyph unicode="|" horiz-adv-x="371" d="M149 -138V696H222V-138H149Z" />
<glyph unicode="}" horiz-adv-x="290" d="M-45 -192L-51 -166L46 -129L95 228L202 259L107 291L197 647L113 684L130 711L277 674L184 302L248 267L245 252L168 217L116 -157L-45 -192Z" />
<glyph unicode="~" horiz-adv-x="521" d="M89 228L59 248Q84 298 112 320T172 342Q202 342 231 329T289 303T347 290Q375 290 392 302T428 344L460 324Q408 230 343 230Q317 230 287 243T226 270T168 283Q146 283 128 271T89 228Z" />
<glyph unicode="&#xa0;" horiz-adv-x="185" />
<glyph unicode="&#xa1;" horiz-adv-x="231" d="M-11 -120L103 304H144L93 -120H-11ZM149 389Q126 389 109 405T92 444Q92 467 109 483T149 500Q172 500 187 484T203 444Q203 421 188 405T149 389Z" />
<glyph unicode="&#xa2;" horiz-adv-x="492" d="M162 -90L184 32Q137 39 106 62T60 125T44 217Q44 313 74 391T162 519T298 573L320 693H365L343 573Q375 572 410 563T469 540L437 413H400L394 508Q378 514 355 518T309 523Q258 523 223 494T167 417T135 316T125
210Q125 152 149 118T234 83Q277 83 318 90T387 109V77Q351 57 309 44T229 30L207 -90H162Z" />
<glyph unicode="&#xa3;" horiz-adv-x="492" d="M1 0L-4 41Q-4 41 12 49T49 71T89 106T112 153L133 263H37L52 307H140Q160 412 183 481T246 584T351 619Q390 619 423 612T484 591L452 464H414L410 558Q396 562 383 564T354 566Q311 566 286 537T247 458T220 343L214
307H398L382 263H206L186 151Q183 134 168 115T132 78T90 50L353 60L408 104L421 90L377 0H1Z" />
<glyph unicode="&#xa4;" horiz-adv-x="559" d="M91 29L54 79L117 131Q99 166 99 209Q99 253 116 293T163 366L120 419L179 468L221 414Q250 432 281 442T345 452Q411 452 455 414L518 467L557 419L494 366Q502 347 507 327T512 285Q512 245 495 204T448 131L491
80L434 30L391 83Q334 47 267 47Q201 47 157 83L91 29ZM279 109Q322 109 360 132T424 192T449 274Q449 324 417 356T333 389Q295 389 260 370T200 319T167 248Q166 241 165 235T164 221Q164 173 196 141T279 109Z" />
<glyph unicode="&#xa5;" horiz-adv-x="492" d="M68 0L73 33L168 53L200 227H42L50 268H192L176 329H61L68 368H167L119 558L64 578L71 611H265L258 578L204 558L264 290L424 558L367 578L373 611H554L547 578L480 558L363 368H460L453 329H339L301 268H442L434
227H276L245 53L332 33L326 0H68Z" />
<glyph unicode="&#xa6;" horiz-adv-x="371" d="M149 373V696H222V373H149ZM149 -138V184H222V-138H149Z" />
<glyph unicode="&#xa7;" horiz-adv-x="400" d="M143 -9Q112 -9 74 -4T-7 12L27 130H54L59 50Q69 47 91 42T141 37Q169 37 195 47T238 75T255 121Q255 143 236 167T189 216T133 266T85 316T66 364Q66 372 69 384T77 404Q148 334 196 290T272 218T313 172T326 134Q326
92 300 60T232 9T143 -9ZM336 217Q269 283 223 325T148 395T108 443T95 488Q95 538 121 568T188 613T270 627Q313 627 351 618T408 599L370 493H339L335 569Q326 572 305 575T262 578Q244 578 221 574T180 555T163 504Q163 480 181 455T227 405T282 354T328 305T347
259Q347 243 344 234T336 217Z" />
<glyph unicode="&#xa8;" horiz-adv-x="291" d="M308 583Q286 583 269 599T251 638Q251 662 268 679T308 696Q331 696 348 679T366 638Q366 616 349 600T308 583ZM134 583Q112 583 95 599T77 638Q77 662 94 679T134 696Q157 696 174 679T191 638Q191 616 174 600T134 583Z" />
<glyph unicode="&#xa9;" horiz-adv-x="506" d="M253 209Q186 209 131 242T43 330T10 452Q10 519 43 574T131 663T253 696Q320 696 375 663T463 575T496 452Q496 386 463 331T375 242T253 209ZM257 296Q204 296 173 314T129 368T116 455Q116 501 130 537T175 593T257
614Q280 614 302 610T348 599L344 533H320L307 579Q295 582 285 583T264 585Q228 585 209 569T183 523T176 455Q176 423 182 393T206 343T262 324Q273 324 283 325T307 330L320 371H344L348 315Q326 305 306 301T257 296ZM253 241Q313 241 360 269T436 345T464
452Q464 512 436 559T361 635T253 663Q194 663 147 635T71 560T43 452Q43 393 71 345T146 269T253 241Z" />
<glyph unicode="&#xaa;" horiz-adv-x="452" d="M149 269Q125 269 104 279T70 315T57 383Q57 467 84 527T159 619T273 651Q296 651 319 647T342 642L358 666L391 658L346 427Q338 383 335 352T331 320H387V291Q355 280 335 275T298 269Q279 269 271 278T262 303Q262
305 263 312T264 326T265 333Q240 304 207 287T149 269ZM173 322Q186 322 205 333T243 361T271 394Q271 394 275 415T285 468T297 534T309 595Q301 601 289 605T265 610Q231 610 206 591T165 539T140 467T131 384Q131 360 136 347T150 328T173 322Z" />
<glyph unicode="&#xab;" horiz-adv-x="412" d="M300 71L200 248L369 426L400 403L288 248L340 93L300 71ZM142 71L42 248L211 426L241 403L130 248L181 93L142 71Z" />
<glyph unicode="&#xac;" horiz-adv-x="521" d="M403 137V282H68V336H453V137H403Z" />
<glyph unicode="&#xad;" horiz-adv-x="281" d="M2 212L11 261H275L266 212H2Z" />
<glyph unicode="&#xae;" horiz-adv-x="506" d="M253 209Q186 209 131 242T43 330T10 452Q10 519 43 574T131 663T253 696Q320 696 375 663T463 575T496 452Q496 386 463 331T375 242T253 209ZM253 241Q313 241 361 269T437 345T465 452Q465 512 437 559T361 635T253
663Q194 663 146 635T70 560T42 452Q42 393 70 345T146 269T253 241ZM130 304V321L164 330V584L130 591V610H255Q293 610 315 599T348 570T358 536Q358 522 353 505T332 472T286 450Q298 446 306 433T330 393Q339 377 347 362T365 330L396 322V304H319Q294 355
280 384T256 425T239 441T220 444H214V330L247 321V304H130ZM214 463H240Q272 463 287 482T302 529Q302 555 286 570T234 586Q229 586 224 586T214 586V463Z" />
<glyph unicode="&#xaf;" horiz-adv-x="220" d="M73 609L81 661H298L290 609H73Z" />
<glyph unicode="&#xb0;" horiz-adv-x="453" d="M226 400Q183 400 147 421T90 477T69 557Q69 600 90 635T147 692T226 714Q270 714 305 693T362 636T384 557Q384 513 363 478T306 421T226 400ZM226 434Q278 434 306 470T334 557Q334 607 306 643T226 680Q175 680
147 644T118 557Q118 506 146 470T226 434Z" />
<glyph unicode="&#xb1;" horiz-adv-x="521" d="M234 117V281H69V334H234V500H286V334H453V281H286V117H234ZM69 30V82H453V30H69Z" />
<glyph unicode="&#xb2;" horiz-adv-x="401" d="M57 277L54 315L229 458Q260 484 283 509T320 560T333 616Q333 642 317 657T270 672Q241 672 212 665T151 644L141 679Q171 694 209 705T287 716Q322 716 349 707T393 679T410 626Q410 591 391 557T339 491T268 429L134
326H312L351 382L384 379L355 277H57Z" />
<glyph unicode="&#xb3;" horiz-adv-x="401" d="M178 268Q143 268 111 275T53 292L71 331Q102 319 124 316T166 312Q199 312 227 323T272 357T289 417Q289 447 272 461T228 479T175 483L179 517Q224 522 253 537T296 575T310 624Q310 644 296 656T250 668Q232 668
207 662T150 641L141 676Q170 691 208 702T284 714Q328 714 358 696T388 640Q388 607 372 582T331 538T279 509Q320 502 343 479T366 418Q366 369 341 336T274 285T178 268Z" />
<glyph unicode="&#xb4;" horiz-adv-x="213" d="M80 558L64 577L218 707L294 679V661L80 558Z" />
<glyph unicode="&#xb5;" horiz-adv-x="530" d="M13 -177L135 438L59 445L55 470Q83 480 111 487T165 500T204 505Q214 505 218 500T223 483Q223 479 218 457T205 400T188 326T171 248T158 180T153 135Q153 92 165 76T198 60Q234 60 261 86T307 156T340 249T363
348L386 489L480 505L409 159Q405 141 401 123T394 86T386 48H471V18Q430 4 400 -2T349 -9Q323 -9 314 5T304 38Q304 48 305 58T310 81T315 104Q287 49 254 20T177 -9Q169 -9 158 -6T138 6T123 31L119 30Q121 24 121 19T121 7L104 -162L13 -177Z" />
<glyph unicode="&#xb6;" horiz-adv-x="525" d="M130 0L137 34L255 54L362 611H540L533 577L434 556L337 53L429 33L422 0H130ZM213 204Q128 204 86 249T43 363Q43 413 61 458T112 540T192 597T294 618Q302 618 309 618T323 615L246 208Q239 206 230 205T213 204Z" />
<glyph unicode="&#xb7;" horiz-adv-x="226" d="M114 195Q89 195 73 211T57 252Q57 277 73 293T114 309Q139 309 155 293T171 252Q171 227 155 211T114 195Z" />
<glyph unicode="&#xb8;" horiz-adv-x="255" d="M4 -219Q-28 -219 -55 -209L-41 -185Q-31 -189 -22 -190T-3 -191Q35 -191 60 -170T86 -118Q86 -101 72 -88T18 -75L17 -66L56 8H87L59 -44Q108 -44 129 -61T151 -103Q151 -139 130 -165T75 -205T4 -219Z" />
<glyph unicode="&#xb9;" horiz-adv-x="401" d="M175 277L248 651H135L140 679L330 707L246 277H175Z" />
<glyph unicode="&#xba;" horiz-adv-x="442" d="M167 268Q108 268 80 297T52 384Q52 469 79 529T154 621T263 653Q302 653 327 641T365 603T377 538Q377 453 350 393T276 300T167 268ZM174 312Q209 312 234 333T275 388T298 461T306 537Q306 567 297 588T255 609Q221
609 196 588T155 532T132 459T124 384Q124 353 133 333T174 312Z" />
<glyph unicode="&#xbb;" horiz-adv-x="412" d="M43 71L12 94L124 249L72 404L112 426L212 249L43 71ZM201 71L171 94L282 249L231 404L270 426L370 249L201 71Z" />
<glyph unicode="&#xbc;" horiz-adv-x="882" d="M262 0L459 611H520L322 0H262ZM91 172L164 546H51L56 574L246 602L162 172H91ZM640 0L659 96H456L451 129L739 434L794 429L738 142H798L789 96H729L710 0H640ZM523 142H668L706 337L523 142Z" />
<glyph unicode="&#xbd;" horiz-adv-x="882" d="M261 0L458 611H519L321 0H261ZM113 172L186 546H73L78 574L268 602L184 172H113ZM459 0V38L633 181Q664 207 687 231T724 282T737 338Q737 363 721 378T674 394Q645 394 617 387T556 367L545 402Q575 417 614 428T692
439Q727 439 754 431T798 403T814 350Q814 315 795 281T744 214T673 152L539 49H717L755 104L788 102L759 0H459Z" />
<glyph unicode="&#xbe;" horiz-adv-x="882" d="M327 0L524 611H585L387 0H327ZM148 163Q113 163 81 170T23 187L41 226Q72 214 94 211T136 207Q169 207 197 218T242 252T259 312Q259 342 242 356T198 374T145 378L149 412Q194 417 223 432T266 470T280 519Q280
539 266 551T220 563Q202 563 177 557T120 536L111 571Q140 586 178 597T254 609Q298 609 328 591T358 535Q358 502 342 477T301 433T249 404Q290 397 313 374T336 313Q336 264 311 231T244 180T148 163ZM691 0L710 96H507L502 129L790 434L845 429L789 142H849L840
96H780L761 0H691ZM574 142H719L757 337L574 142Z" />
<glyph unicode="&#xbf;" horiz-adv-x="370" d="M133 -137Q68 -137 26 -102T-16 -11Q-16 22 1 53T55 119T154 199Q191 225 214 247T238 286Q238 297 231 301T216 306T208 307L215 329Q215 329 224 330T244 332Q273 332 287 320T302 284Q302 261 271 230T193 162Q151
129 125 98T85 42T72 -3Q72 -48 97 -67T161 -87Q189 -87 216 -81T261 -69T279 -63L290 -94Q277 -102 250 -112T192 -130T133 -137ZM275 389Q252 389 236 405T219 445Q219 468 235 484T275 500Q298 500 314 484T330 445Q330 422 314 406T275 389Z" />
<glyph unicode="&#xc0;" horiz-adv-x="550" d="M-46 0L-41 35L31 48L314 615L367 626L446 52L508 35L502 0H298L303 36L365 48L342 223H175L88 47L155 37L146 0H-46ZM196 266H336L307 489L196 266ZM434 651L220 754V772L296 800L450 670L434 651Z" />
<glyph unicode="&#xc1;" horiz-adv-x="550" d="M-46 0L-41 35L31 48L314 615L367 626L446 52L508 35L502 0H298L303 36L365 48L342 223H175L88 47L155 37L146 0H-46ZM196 266H336L307 489L196 266ZM277 651L261 670L415 800L491 772V754L277 651Z" />
<glyph unicode="&#xc2;" horiz-adv-x="550" d="M-46 0L-41 35L31 48L314 615L367 626L446 52L508 35L502 0H298L303 36L365 48L342 223H175L88 47L155 37L146 0H-46ZM196 266H336L307 489L196 266ZM220 650L200 669L339 804H399L478 669L452 650L358 735L220 650Z" />
<glyph unicode="&#xc3;" horiz-adv-x="550" d="M-46 0L-41 35L31 48L314 615L367 626L446 52L508 35L502 0H298L303 36L365 48L342 223H175L88 47L155 37L146 0H-46ZM196 266H336L307 489L196 266ZM435 670Q422 670 402 676T359 690T316 704T283 710Q275 710 267
704T251 690T238 674L208 686Q224 725 241 753T284 782Q301 782 330 772T389 752T436 742Q445 742 453 747T468 761T479 777L510 765Q494 727 477 699T435 670Z" />
<glyph unicode="&#xc4;" horiz-adv-x="550" d="M-46 0L-41 35L31 48L314 615L367 626L446 52L508 35L502 0H298L303 36L365 48L342 223H175L88 47L155 37L146 0H-46ZM196 266H336L307 489L196 266ZM451 671Q429 671 412 687T394 726Q394 750 411 767T451 784Q474
784 491 767T509 726Q509 704 492 688T451 671ZM257 671Q235 671 218 687T200 726Q200 750 217 767T257 784Q280 784 297 767T314 726Q314 704 297 688T257 671Z" />
<glyph unicode="&#xc5;" horiz-adv-x="550" d="M-46 0L-41 35L31 48L314 615L367 626L446 52L508 35L502 0H298L303 36L365 48L342 223H175L88 47L155 37L146 0H-46ZM196 266H336L307 489L196 266ZM345 639Q302 639 281 659T260 709Q260 740 274 765T314 805T377
820Q420 820 440 800T461 749Q461 705 430 672T345 639ZM351 674Q383 674 395 697T407 746Q407 766 398 775T371 785Q339 785 327 762T314 711Q314 693 323 684T351 674Z" />
<glyph unicode="&#xc6;" horiz-adv-x="712" d="M-91 0L-86 35L-14 48L356 564L296 578L302 611H691L666 479H628V559H458L425 309H543L576 375H610L575 194H541L531 263H419L393 56H568L610 147H647L619 0H217L223 33L316 53L343 263H199L43 47L108 37L99 0H-91ZM232
309H349L374 505L232 309Z" />
<glyph unicode="&#xc7;" horiz-adv-x="524" d="M262 -9Q184 -9 136 19T65 97T42 211Q42 293 66 367T134 500T243 592T386 626Q445 626 483 618T549 599L514 469H481V566Q462 572 440 575T383 578Q318 578 271 546T193 462T147 345T132 217Q132 164 146 124T194
61T284 39Q303 39 326 42T376 54L416 138H450L436 23Q396 8 356 0T262 -9ZM182 -219Q150 -219 123 -209L137 -185Q147 -189 156 -190T175 -191Q213 -191 238 -170T264 -118Q264 -101 250 -88T196 -75L195 -66L234 8H265L237 -44Q286 -44 307 -61T329 -103Q329 -139
308 -165T253 -205T182 -219Z" />
<glyph unicode="&#xc8;" horiz-adv-x="517" d="M-8 0L-2 33L91 53L189 558L104 578L110 611H519L494 479H456V559H267L222 323H358L391 389H425L390 208H356L346 277H213L170 56H373L415 147H452L424 0H-8ZM437 651L223 754V772L299 800L453 670L437 651Z" />
<glyph unicode="&#xc9;" horiz-adv-x="517" d="M-8 0L-2 33L91 53L189 558L104 578L110 611H519L494 479H456V559H267L222 323H358L391 389H425L390 208H356L346 277H213L170 56H373L415 147H452L424 0H-8ZM280 651L264 670L418 800L494 772V754L280 651Z" />
<glyph unicode="&#xca;" horiz-adv-x="517" d="M-8 0L-2 33L91 53L189 558L104 578L110 611H519L494 479H456V559H267L222 323H358L391 389H425L390 208H356L346 277H213L170 56H373L415 147H452L424 0H-8ZM223 650L203 669L342 804H402L481 669L455 650L361 735L223
650Z" />
<glyph unicode="&#xcb;" horiz-adv-x="517" d="M-8 0L-2 33L91 53L189 558L104 578L110 611H519L494 479H456V559H267L222 323H358L391 389H425L390 208H356L346 277H213L170 56H373L415 147H452L424 0H-8ZM454 671Q432 671 415 687T397 726Q397 750 414 767T454
784Q477 784 494 767T512 726Q512 704 495 688T454 671ZM260 671Q238 671 221 687T203 726Q203 750 220 767T260 784Q283 784 300 767T317 726Q317 704 300 688T260 671Z" />
<glyph unicode="&#xcc;" horiz-adv-x="325" d="M-8 0L-2 33L86 53L184 558L104 578L110 611H357L351 578L262 558L164 53L245 33L239 0H-8ZM329 651L115 754V772L191 800L345 670L329 651Z" />
<glyph unicode="&#xcd;" horiz-adv-x="325" d="M-8 0L-2 33L86 53L184 558L104 578L110 611H357L351 578L262 558L164 53L245 33L239 0H-8ZM172 651L156 670L310 800L386 772V754L172 651Z" />
<glyph unicode="&#xce;" horiz-adv-x="325" d="M-8 0L-2 33L86 53L184 558L104 578L110 611H357L351 578L262 558L164 53L245 33L239 0H-8ZM115 650L95 669L234 804H294L373 669L347 650L253 735L115 650Z" />
<glyph unicode="&#xcf;" horiz-adv-x="325" d="M-8 0L-2 33L86 53L184 558L104 578L110 611H357L351 578L262 558L164 53L245 33L239 0H-8ZM346 671Q324 671 307 687T289 726Q289 750 306 767T346 784Q369 784 386 767T404 726Q404 704 387 688T346 671ZM152 671Q130
671 113 687T95 726Q95 750 112 767T152 784Q175 784 192 767T209 726Q209 704 192 688T152 671Z" />
<glyph unicode="&#xd0;" horiz-adv-x="606" d="M-10 0L-4 33L84 53L127 277H46L55 323H136L182 558L102 578L108 611H360Q479 611 533 555T588 402Q588 328 566 257T502 127T397 35T252 0H-10ZM254 41Q309 41 350 64T419 125T466 211T492 308T500 401Q500 480
463 522T345 564Q316 564 295 562T260 558L214 323H326L317 277H205L163 58Q180 51 204 46T254 41Z" />
<glyph unicode="&#xd1;" horiz-adv-x="682" d="M470 -8L216 488L132 53L209 33L203 0H-8L-2 33L77 53L175 559L104 578L110 611H240L489 130L572 559L496 578L502 611H711L705 578L624 559L516 0L470 -8ZM493 670Q480 670 460 676T417 690T374 704T341 710Q333
710 325 704T309 690T296 674L266 686Q282 725 299 753T342 782Q359 782 388 772T447 752T494 742Q503 742 511 747T526 761T537 777L568 765Q552 727 535 699T493 670Z" />
<glyph unicode="&#xd2;" horiz-adv-x="622" d="M262 -9Q184 -9 136 20T66 100T43 215Q43 294 65 367T131 499T238 592T385 626Q464 626 512 598T581 520T603 406Q603 326 581 252T517 119T410 26T262 -9ZM271 39Q325 39 365 62T434 125T481 211T507 308T515 401Q515
450 503 490T459 554T373 578Q314 578 272 550T203 478T161 385T139 290T132 217Q132 166 145 126T188 62T271 39ZM476 651L262 754V772L338 800L492 670L476 651Z" />
<glyph unicode="&#xd3;" horiz-adv-x="622" d="M262 -9Q184 -9 136 20T66 100T43 215Q43 294 65 367T131 499T238 592T385 626Q464 626 512 598T581 520T603 406Q603 326 581 252T517 119T410 26T262 -9ZM271 39Q325 39 365 62T434 125T481 211T507 308T515 401Q515
450 503 490T459 554T373 578Q314 578 272 550T203 478T161 385T139 290T132 217Q132 166 145 126T188 62T271 39ZM320 651L304 670L458 800L534 772V754L320 651Z" />
<glyph unicode="&#xd4;" horiz-adv-x="622" d="M262 -9Q184 -9 136 20T66 100T43 215Q43 294 65 367T131 499T238 592T385 626Q464 626 512 598T581 520T603 406Q603 326 581 252T517 119T410 26T262 -9ZM271 39Q325 39 365 62T434 125T481 211T507 308T515 401Q515
450 503 490T459 554T373 578Q314 578 272 550T203 478T161 385T139 290T132 217Q132 166 145 126T188 62T271 39ZM262 650L242 669L381 804H441L520 669L494 650L400 735L262 650Z" />
<glyph unicode="&#xd5;" horiz-adv-x="622" d="M262 -9Q184 -9 136 20T66 100T43 215Q43 294 65 367T131 499T238 592T385 626Q464 626 512 598T581 520T603 406Q603 326 581 252T517 119T410 26T262 -9ZM271 39Q325 39 365 62T434 125T481 211T507 308T515 401Q515
450 503 490T459 554T373 578Q314 578 272 550T203 478T161 385T139 290T132 217Q132 166 145 126T188 62T271 39ZM477 670Q464 670 444 676T401 690T358 704T325 710Q317 710 309 704T293 690T280 674L250 686Q266 725 283 753T326 782Q343 782 372 772T431 752T478
742Q487 742 495 747T510 761T521 777L552 765Q536 727 519 699T477 670Z" />
<glyph unicode="&#xd6;" horiz-adv-x="622" d="M262 -9Q184 -9 136 20T66 100T43 215Q43 294 65 367T131 499T238 592T385 626Q464 626 512 598T581 520T603 406Q603 326 581 252T517 119T410 26T262 -9ZM271 39Q325 39 365 62T434 125T481 211T507 308T515 401Q515
450 503 490T459 554T373 578Q314 578 272 550T203 478T161 385T139 290T132 217Q132 166 145 126T188 62T271 39ZM493 671Q471 671 454 687T436 726Q436 750 453 767T493 784Q516 784 533 767T551 726Q551 704 534 688T493 671ZM299 671Q277 671 260 687T242 726Q242
750 259 767T299 784Q322 784 339 767T356 726Q356 704 339 688T299 671Z" />
<glyph unicode="&#xd7;" horiz-adv-x="521" d="M129 141L92 180L223 310L92 441L130 479L260 348L390 478L428 441L297 310L428 180L392 142L260 273L129 141Z" />
<glyph unicode="&#xd8;" horiz-adv-x="623" d="M157 -96L188 0Q111 19 77 77T42 215Q42 294 64 367T130 499T238 592T385 626H390L417 708H478L449 620Q532 603 567 545T603 406Q603 326 581 252T517 119T410 26T262 -9H246L218 -96H157ZM205 52L375 578Q338 578
305 565T245 528T197 470T162 397T140 311T132 217Q132 159 148 116T205 52ZM261 39Q310 39 350 57T421 109T473 187T504 287T515 401Q515 459 497 504T432 568L261 39Z" />
<glyph unicode="&#xd9;" horiz-adv-x="599" d="M255 -10Q187 -10 149 11T95 68T79 152Q79 178 82 206T92 264L149 559L75 578L80 611H316L311 578L228 559L171 264Q166 236 162 210T158 162Q158 109 181 75T268 41Q326 41 362 66T418 135T450 237L512 559L435
578L441 611H654L648 578L569 559L506 236Q500 203 486 161T444 80T371 16T255 -10ZM471 651L257 754V772L333 800L487 670L471 651Z" />
<glyph unicode="&#xda;" horiz-adv-x="599" d="M255 -10Q187 -10 149 11T95 68T79 152Q79 178 82 206T92 264L149 559L75 578L80 611H316L311 578L228 559L171 264Q166 236 162 210T158 162Q158 109 181 75T268 41Q326 41 362 66T418 135T450 237L512 559L435
578L441 611H654L648 578L569 559L506 236Q500 203 486 161T444 80T371 16T255 -10ZM314 651L298 670L452 800L528 772V754L314 651Z" />
<glyph unicode="&#xdb;" horiz-adv-x="599" d="M255 -10Q187 -10 149 11T95 68T79 152Q79 178 82 206T92 264L149 559L75 578L80 611H316L311 578L228 559L171 264Q166 236 162 210T158 162Q158 109 181 75T268 41Q326 41 362 66T418 135T450 237L512 559L435
578L441 611H654L648 578L569 559L506 236Q500 203 486 161T444 80T371 16T255 -10ZM257 650L237 669L376 804H436L515 669L489 650L395 735L257 650Z" />
<glyph unicode="&#xdc;" horiz-adv-x="599" d="M255 -10Q187 -10 149 11T95 68T79 152Q79 178 82 206T92 264L149 559L75 578L80 611H316L311 578L228 559L171 264Q166 236 162 210T158 162Q158 109 181 75T268 41Q326 41 362 66T418 135T450 237L512 559L435
578L441 611H654L648 578L569 559L506 236Q500 203 486 161T444 80T371 16T255 -10ZM488 671Q466 671 449 687T431 726Q431 750 448 767T488 784Q511 784 528 767T546 726Q546 704 529 688T488 671ZM294 671Q272 671 255 687T237 726Q237 750 254 767T294 784Q317
784 334 767T351 726Q351 704 334 688T294 671Z" />
<glyph unicode="&#xdd;" horiz-adv-x="535" d="M79 0L85 33L189 53L222 224L130 558L70 578L76 611H270L264 578L205 558L280 280L463 558L400 578L406 611H600L594 578L522 558L299 224L266 53L363 33L357 0H79ZM274 651L258 670L412 800L488 772V754L274 651Z" />
<glyph unicode="&#xde;" horiz-adv-x="464" d="M-8 0L-2 33L86 53L184 558L104 578L110 611H357L351 578L262 558L245 473H291Q374 473 417 443T460 352Q460 298 440 259T388 193T318 154T241 141Q227 141 213 141T182 145L164 53L245 33L239 0H-8ZM230 178Q257
178 283 186T331 214T366 265T379 343Q379 380 365 399T329 426T282 433Q266 433 257 432T237 428L189 180Q197 179 207 179T230 178Z" />
<glyph unicode="&#xdf;" horiz-adv-x="617" d="M387 -9Q353 -9 318 -3T259 12L296 123H324V48Q344 44 361 42T392 39Q440 39 468 59T496 113Q496 145 479 166T435 204T383 239T339 280T321 340Q321 370 333 392T362 432T397 470T427 512T439 566Q439 606 417 627T352
648Q306 648 279 619T239 523L149 50L224 31L218 0H-21L-15 31L69 50L144 440H73L78 467L153 488Q166 557 195 604T270 675T373 700Q443 700 484 665T525 571Q525 544 512 523T481 484T443 449T411 411T398 366Q398 337 415 317T459 281T511 247T555 203T573 137Q573
71 523 31T387 -9Z" />
<glyph unicode="&#xe0;" horiz-adv-x="513" d="M150 -8Q119 -8 93 5T50 51T34 142Q34 255 69 335T168 457T319 500Q340 500 367 496T416 485L438 524L469 516L408 202Q398 152 393 109T387 50H466V20Q425 6 400 -1T355 -8Q330 -8 320 3T309 33Q309 36 310 46T313
69T316 94Q294 64 264 41T204 5T150 -8ZM183 53Q202 53 229 69T281 109T321 154L375 429Q362 440 343 446T308 452Q260 452 224 426T165 356T130 257T118 144Q118 92 136 73T183 53ZM390 558L176 661V679L252 707L406 577L390 558Z" />
<glyph unicode="&#xe1;" horiz-adv-x="513" d="M150 -8Q119 -8 93 5T50 51T34 142Q34 255 69 335T168 457T319 500Q340 500 367 496T416 485L438 524L469 516L408 202Q398 152 393 109T387 50H466V20Q425 6 400 -1T355 -8Q330 -8 320 3T309 33Q309 36 310 46T313
69T316 94Q294 64 264 41T204 5T150 -8ZM183 53Q202 53 229 69T281 109T321 154L375 429Q362 440 343 446T308 452Q260 452 224 426T165 356T130 257T118 144Q118 92 136 73T183 53ZM238 558L222 577L376 707L452 679V661L238 558Z" />
<glyph unicode="&#xe2;" horiz-adv-x="513" d="M150 -8Q119 -8 93 5T50 51T34 142Q34 255 69 335T168 457T319 500Q340 500 367 496T416 485L438 524L469 516L408 202Q398 152 393 109T387 50H466V20Q425 6 400 -1T355 -8Q330 -8 320 3T309 33Q309 36 310 46T313
69T316 94Q294 64 264 41T204 5T150 -8ZM183 53Q202 53 229 69T281 109T321 154L375 429Q362 440 343 446T308 452Q260 452 224 426T165 356T130 257T118 144Q118 92 136 73T183 53ZM212 552L192 571L311 709H371L440 571L414 552L331 638L212 552Z" />
<glyph unicode="&#xe3;" horiz-adv-x="513" d="M150 -8Q119 -8 93 5T50 51T34 142Q34 255 69 335T168 457T319 500Q340 500 367 496T416 485L438 524L469 516L408 202Q398 152 393 109T387 50H466V20Q425 6 400 -1T355 -8Q330 -8 320 3T309 33Q309 36 310 46T313
69T316 94Q294 64 264 41T204 5T150 -8ZM183 53Q202 53 229 69T281 109T321 154L375 429Q362 440 343 446T308 452Q260 452 224 426T165 356T130 257T118 144Q118 92 136 73T183 53ZM400 584Q383 584 356 594T302 614T258 624Q247 624 237 615T220 597T213 588L183
600Q199 639 215 666T257 694Q274 694 301 684T355 664T399 654Q411 654 420 663T436 680T442 689L473 677Q457 639 441 612T400 584Z" />
<glyph unicode="&#xe4;" horiz-adv-x="513" d="M150 -8Q119 -8 93 5T50 51T34 142Q34 255 69 335T168 457T319 500Q340 500 367 496T416 485L438 524L469 516L408 202Q398 152 393 109T387 50H466V20Q425 6 400 -1T355 -8Q330 -8 320 3T309 33Q309 36 310 46T313
69T316 94Q294 64 264 41T204 5T150 -8ZM183 53Q202 53 229 69T281 109T321 154L375 429Q362 440 343 446T308 452Q260 452 224 426T165 356T130 257T118 144Q118 92 136 73T183 53ZM415 583Q393 583 376 599T358 638Q358 662 375 679T415 696Q438 696 455 679T473
638Q473 616 456 600T415 583ZM241 583Q219 583 202 599T184 638Q184 662 201 679T241 696Q264 696 281 679T298 638Q298 616 281 600T241 583Z" />
<glyph unicode="&#xe5;" horiz-adv-x="513" d="M150 -8Q119 -8 93 5T50 51T34 142Q34 255 69 335T168 457T319 500Q340 500 367 496T416 485L438 524L469 516L408 202Q398 152 393 109T387 50H466V20Q425 6 400 -1T355 -8Q330 -8 320 3T309 33Q309 36 310 46T313
69T316 94Q294 64 264 41T204 5T150 -8ZM183 53Q202 53 229 69T281 109T321 154L375 429Q362 440 343 446T308 452Q260 452 224 426T165 356T130 257T118 144Q118 92 136 73T183 53ZM317 536Q274 536 253 559T232 616Q232 649 246 676T286 720T349 737Q392 737
412 714T433 656Q433 624 419 597T379 553T317 536ZM323 571Q355 571 367 598T379 660Q379 679 371 690T343 702Q311 702 299 675T286 613Q286 594 293 583T323 571Z" />
<glyph unicode="&#xe6;" horiz-adv-x="704" d="M149 -9Q118 -9 92 4T50 51T34 142Q34 255 69 336T168 461T319 505Q335 505 353 503T388 497T416 490L438 524L469 516L458 461Q478 475 501 485T552 500T609 505Q652 505 683 481T714 408Q714 330 639 285T424 240Q420
216 418 196T415 158Q415 113 429 88T471 52T542 42Q557 42 578 47T619 60L626 26Q592 9 558 0T492 -9Q435 -9 390 22T334 120Q300 70 266 42T202 2T149 -9ZM183 53Q202 53 228 69T280 109T320 154L375 434Q364 445 349 451T308 457Q258 457 222 430T163 358T129
258T118 144Q118 92 136 73T183 53ZM432 273Q526 273 582 305T638 400Q638 423 626 440T588 457Q530 457 490 409T432 273Z" />
<glyph unicode="&#xe7;" horiz-adv-x="392" d="M177 -9Q135 -9 103 7T52 58T34 148Q34 216 50 280T98 394T181 475T298 505Q327 505 355 500T407 482L383 368H350L340 453Q330 457 319 458T299 459Q254 459 221 432T166 361T133 266T122 165Q122 98 141 69T213
40Q234 40 258 45T307 59L318 24Q284 7 247 -1T177 -9ZM109 -219Q77 -219 50 -209L64 -185Q74 -189 83 -190T102 -191Q140 -191 165 -170T191 -118Q191 -101 177 -88T123 -75L122 -66L161 8H192L164 -44Q213 -44 234 -61T256 -103Q256 -139 235 -165T180 -205T109
-219Z" />
<glyph unicode="&#xe8;" horiz-adv-x="408" d="M194 -9Q140 -9 105 8T53 62T35 155Q35 217 50 279T99 392T185 474T312 505Q354 505 385 481T417 407Q417 330 342 285T126 239Q122 217 120 197T118 159Q118 113 129 88T168 53T244 42Q263 42 283 47T321 60L328
27Q295 9 261 0T194 -9ZM135 273Q229 273 284 305T340 400Q340 423 328 440T290 457Q232 457 193 409T135 273ZM346 558L132 661V679L208 707L362 577L346 558Z" />
<glyph unicode="&#xe9;" horiz-adv-x="408" d="M194 -9Q140 -9 105 8T53 62T35 155Q35 217 50 279T99 392T185 474T312 505Q354 505 385 481T417 407Q417 330 342 285T126 239Q122 217 120 197T118 159Q118 113 129 88T168 53T244 42Q263 42 283 47T321 60L328
27Q295 9 261 0T194 -9ZM135 273Q229 273 284 305T340 400Q340 423 328 440T290 457Q232 457 193 409T135 273ZM194 558L178 577L332 707L408 679V661L194 558Z" />
<glyph unicode="&#xea;" horiz-adv-x="408" d="M194 -9Q140 -9 105 8T53 62T35 155Q35 217 50 279T99 392T185 474T312 505Q354 505 385 481T417 407Q417 330 342 285T126 239Q122 217 120 197T118 159Q118 113 129 88T168 53T244 42Q263 42 283 47T321 60L328
27Q295 9 261 0T194 -9ZM135 273Q229 273 284 305T340 400Q340 423 328 440T290 457Q232 457 193 409T135 273ZM168 552L148 571L267 709H327L396 571L370 552L287 638L168 552Z" />
<glyph unicode="&#xeb;" horiz-adv-x="408" d="M194 -9Q140 -9 105 8T53 62T35 155Q35 217 50 279T99 392T185 474T312 505Q354 505 385 481T417 407Q417 330 342 285T126 239Q122 217 120 197T118 159Q118 113 129 88T168 53T244 42Q263 42 283 47T321 60L328
27Q295 9 261 0T194 -9ZM135 273Q229 273 284 305T340 400Q340 423 328 440T290 457Q232 457 193 409T135 273ZM371 583Q349 583 332 599T314 638Q314 662 331 679T371 696Q394 696 411 679T429 638Q429 616 412 600T371 583ZM197 583Q175 583 158 599T140 638Q140
662 157 679T197 696Q220 696 237 679T254 638Q254 616 237 600T197 583Z" />
<glyph unicode="&#xec;" horiz-adv-x="292" d="M108 -9Q83 -9 73 2T62 33Q62 40 67 69T81 143T100 240T120 343T139 438L63 445L59 470Q87 480 116 488T169 500T208 505Q218 505 222 500T227 483Q227 479 221 448T206 368T185 263T163 150T143 49H228V19Q186 5
157 -2T108 -9ZM527 558L313 661V679L389 707L543 577L527 558Z" />
<glyph unicode="&#xed;" horiz-adv-x="292" d="M108 -9Q83 -9 73 2T62 33Q62 40 67 69T81 143T100 240T120 343T139 438L63 445L59 470Q87 480 116 488T169 500T208 505Q218 505 222 500T227 483Q227 479 221 448T206 368T185 263T163 150T143 49H228V19Q186 5
157 -2T108 -9ZM119 558L103 577L257 707L333 679V661L119 558Z" />
<glyph unicode="&#xee;" horiz-adv-x="292" d="M108 -9Q83 -9 73 2T62 33Q62 40 67 69T81 143T100 240T120 343T139 438L63 445L59 470Q87 480 116 488T169 500T208 505Q218 505 222 500T227 483Q227 479 221 448T206 368T185 263T163 150T143 49H228V19Q186 5
157 -2T108 -9ZM93 552L73 571L192 709H252L321 571L295 552L212 638L93 552Z" />
<glyph unicode="&#xef;" horiz-adv-x="292" d="M108 -9Q83 -9 73 2T62 33Q62 40 67 69T81 143T100 240T120 343T139 438L63 445L59 470Q87 480 116 488T169 500T208 505Q218 505 222 500T227 483Q227 479 221 448T206 368T185 263T163 150T143 49H228V19Q186 5
157 -2T108 -9ZM552 583Q530 583 513 599T495 638Q495 662 512 679T552 696Q575 696 592 679T610 638Q610 616 593 600T552 583ZM378 583Q356 583 339 599T321 638Q321 662 338 679T378 696Q401 696 418 679T435 638Q435 616 418 600T378 583Z" />
<glyph unicode="&#xf0;" horiz-adv-x="497" d="M184 -9Q107 -9 71 29T34 143Q34 258 70 338T169 462T314 505Q326 505 337 504T359 501Q352 524 343 545T321 589L228 530L206 567L299 626Q284 649 266 672T227 721L253 745Q277 723 299 701T342 653L431 709L453
674L367 619Q411 557 437 491T465 362V338Q464 326 464 315T461 290Q451 196 414 129T317 27T184 -9ZM203 40Q251 40 285 70T339 149T369 253T379 357Q379 401 362 428T297 455Q258 455 229 435T179 382T145 307T126 221T120 138Q120 94 138 67T203 40Z" />
<glyph unicode="&#xf1;" horiz-adv-x="565" d="M57 -9L145 437L70 445L66 470Q94 480 122 487T175 500T215 505Q225 505 229 499T234 481Q234 474 231 455T224 416T217 385Q248 419 288 446T368 490T437 506Q465 506 481 492T498 444Q498 434 493 403T478 328T458
235T436 137T416 48H502V19Q474 6 447 -1T399 -9Q371 -9 354 3T336 43Q336 51 341 78T355 143T373 223T391 303T405 370T411 408Q411 425 402 432T378 440Q356 440 325 426T263 388T206 331L152 6L57 -9ZM411 584Q394 584 367 594T313 614T269 624Q258 624 248
615T231 597T224 588L194 600Q210 639 226 666T268 694Q285 694 312 684T366 664T410 654Q422 654 431 663T447 680T453 689L484 677Q468 639 452 612T411 584Z" />
<glyph unicode="&#xf2;" horiz-adv-x="497" d="M184 -9Q107 -9 71 29T34 143Q34 258 70 338T169 462T314 505Q366 505 399 488T448 438T465 355Q465 241 429 160T330 35T184 -9ZM203 40Q251 40 285 70T339 149T369 253T379 357Q379 401 362 428T297 455Q258 455
229 435T179 382T145 307T126 221T120 138Q120 94 138 67T203 40ZM383 558L169 661V679L245 707L399 577L383 558Z" />
<glyph unicode="&#xf3;" horiz-adv-x="497" d="M184 -9Q107 -9 71 29T34 143Q34 258 70 338T169 462T314 505Q366 505 399 488T448 438T465 355Q465 241 429 160T330 35T184 -9ZM203 40Q251 40 285 70T339 149T369 253T379 357Q379 401 362 428T297 455Q258 455
229 435T179 382T145 307T126 221T120 138Q120 94 138 67T203 40ZM231 558L215 577L369 707L445 679V661L231 558Z" />
<glyph unicode="&#xf4;" horiz-adv-x="497" d="M184 -9Q107 -9 71 29T34 143Q34 258 70 338T169 462T314 505Q366 505 399 488T448 438T465 355Q465 241 429 160T330 35T184 -9ZM203 40Q251 40 285 70T339 149T369 253T379 357Q379 401 362 428T297 455Q258 455
229 435T179 382T145 307T126 221T120 138Q120 94 138 67T203 40ZM205 552L185 571L304 709H364L433 571L407 552L324 638L205 552Z" />
<glyph unicode="&#xf5;" horiz-adv-x="497" d="M184 -9Q107 -9 71 29T34 143Q34 258 70 338T169 462T314 505Q366 505 399 488T448 438T465 355Q465 241 429 160T330 35T184 -9ZM203 40Q251 40 285 70T339 149T369 253T379 357Q379 401 362 428T297 455Q258 455
229 435T179 382T145 307T126 221T120 138Q120 94 138 67T203 40ZM393 584Q376 584 349 594T295 614T251 624Q240 624 230 615T213 597T206 588L176 600Q192 639 208 666T250 694Q267 694 294 684T348 664T392 654Q404 654 413 663T429 680T435 689L466 677Q450
639 434 612T393 584Z" />
<glyph unicode="&#xf6;" horiz-adv-x="497" d="M184 -9Q107 -9 71 29T34 143Q34 258 70 338T169 462T314 505Q366 505 399 488T448 438T465 355Q465 241 429 160T330 35T184 -9ZM203 40Q251 40 285 70T339 149T369 253T379 357Q379 401 362 428T297 455Q258 455
229 435T179 382T145 307T126 221T120 138Q120 94 138 67T203 40ZM408 583Q386 583 369 599T351 638Q351 662 368 679T408 696Q431 696 448 679T466 638Q466 616 449 600T408 583ZM234 583Q212 583 195 599T177 638Q177 662 194 679T234 696Q257 696 274 679T291
638Q291 616 274 600T234 583Z" />
<glyph unicode="&#xf7;" horiz-adv-x="521" d="M69 282V336H453V282H69ZM260 117Q236 117 218 133T200 174Q200 200 218 217T260 234Q284 234 302 217T320 174Q320 149 302 133T260 117ZM260 382Q236 382 218 399T200 440Q200 465 218 482T260 500Q284 500 302
483T320 440Q320 416 302 399T260 382Z" />
<glyph unicode="&#xf8;" horiz-adv-x="497" d="M107 -92L135 -5Q83 7 59 44T34 144Q34 255 68 334T163 458T301 506L329 589H387L358 503Q412 493 438 456T465 355Q465 243 430 162T334 37T192 -9L165 -92H107ZM153 51L284 455Q248 452 221 431T174 376T142 302T125
219T119 139Q119 108 126 86T153 51ZM207 40Q255 42 288 73T341 152T371 254T380 357Q380 389 372 412T340 447L207 40Z" />
<glyph unicode="&#xf9;" horiz-adv-x="549" d="M146 -8Q129 -8 112 -2T84 21T73 74Q73 98 81 143T102 242T125 348T143 437L67 445L63 469Q91 479 120 487T173 500T212 505Q222 505 228 499T234 483Q234 478 228 450T213 381T194 295T175 207T160 135T154 96Q154
76 165 66T193 56Q215 56 245 66T307 101T364 167L422 489L507 505L444 202Q436 162 432 127T426 71T423 50H502V20Q460 6 436 -1T391 -8Q365 -8 355 3T345 33Q345 36 346 46T349 69T352 94Q324 61 288 39T215 4T146 -8ZM408 558L194 661V679L270 707L424 577L408
558Z" />
<glyph unicode="&#xfa;" horiz-adv-x="549" d="M146 -8Q129 -8 112 -2T84 21T73 74Q73 98 81 143T102 242T125 348T143 437L67 445L63 469Q91 479 120 487T173 500T212 505Q222 505 228 499T234 483Q234 478 228 450T213 381T194 295T175 207T160 135T154 96Q154
76 165 66T193 56Q215 56 245 66T307 101T364 167L422 489L507 505L444 202Q436 162 432 127T426 71T423 50H502V20Q460 6 436 -1T391 -8Q365 -8 355 3T345 33Q345 36 346 46T349 69T352 94Q324 61 288 39T215 4T146 -8ZM256 558L240 577L394 707L470 679V661L256
558Z" />
<glyph unicode="&#xfb;" horiz-adv-x="549" d="M146 -8Q129 -8 112 -2T84 21T73 74Q73 98 81 143T102 242T125 348T143 437L67 445L63 469Q91 479 120 487T173 500T212 505Q222 505 228 499T234 483Q234 478 228 450T213 381T194 295T175 207T160 135T154 96Q154
76 165 66T193 56Q215 56 245 66T307 101T364 167L422 489L507 505L444 202Q436 162 432 127T426 71T423 50H502V20Q460 6 436 -1T391 -8Q365 -8 355 3T345 33Q345 36 346 46T349 69T352 94Q324 61 288 39T215 4T146 -8ZM230 552L210 571L329 709H389L458 571L432
552L349 638L230 552Z" />
<glyph unicode="&#xfc;" horiz-adv-x="549" d="M146 -8Q129 -8 112 -2T84 21T73 74Q73 98 81 143T102 242T125 348T143 437L67 445L63 469Q91 479 120 487T173 500T212 505Q222 505 228 499T234 483Q234 478 228 450T213 381T194 295T175 207T160 135T154 96Q154
76 165 66T193 56Q215 56 245 66T307 101T364 167L422 489L507 505L444 202Q436 162 432 127T426 71T423 50H502V20Q460 6 436 -1T391 -8Q365 -8 355 3T345 33Q345 36 346 46T349 69T352 94Q324 61 288 39T215 4T146 -8ZM433 583Q411 583 394 599T376 638Q376 662
393 679T433 696Q456 696 473 679T491 638Q491 616 474 600T433 583ZM259 583Q237 583 220 599T202 638Q202 662 219 679T259 696Q282 696 299 679T316 638Q316 616 299 600T259 583Z" />
<glyph unicode="&#xfd;" horiz-adv-x="464" d="M77 -178L128 -17L131 88Q131 123 130 159T126 232T118 305T106 374T88 437L11 445L5 470Q47 486 87 495T151 505Q157 505 165 479T182 409T196 308T206 190T206 70Q259 118 293 166T347 260T373 343T381 408Q381
419 380 425T377 438L321 445L316 469Q358 484 392 494T449 505Q451 496 452 487T453 464Q453 385 428 314T363 182T282 77T205 4L164 -162L77 -178ZM206 558L190 577L344 707L420 679V661L206 558Z" />
<glyph unicode="&#xfe;" horiz-adv-x="516" d="M16 -177L163 657L86 667L81 689Q110 701 138 709T192 722T232 727Q243 727 247 720T251 705Q251 701 249 689T242 649Q231 585 220 522T197 394Q223 425 254 450T319 490T382 506Q411 506 434 493T471 450T485 368Q485
310 476 256T446 156T394 74T315 20T208 0Q182 0 165 2T132 9Q126 -34 120 -76T108 -162L16 -177ZM218 45Q265 45 297 68T350 128T381 208T396 289T400 354Q400 405 383 425T337 446Q323 446 303 436T260 410T219 377T188 345Q186 333 184 318T177 275T164 199T141
71Q153 61 175 53T218 45Z" />
<glyph unicode="&#xff;" horiz-adv-x="464" d="M77 -178L128 -17L131 88Q131 123 130 159T126 232T118 305T106 374T88 437L11 445L5 470Q47 486 87 495T151 505Q157 505 165 479T182 409T196 308T206 190T206 70Q259 118 293 166T347 260T373 343T381 408Q381
419 380 425T377 438L321 445L316 469Q358 484 392 494T449 505Q451 496 452 487T453 464Q453 385 428 314T363 182T282 77T205 4L164 -162L77 -178ZM383 583Q361 583 344 599T326 638Q326 662 343 679T383 696Q406 696 423 679T441 638Q441 616 424 600T383 583ZM209
583Q187 583 170 599T152 638Q152 662 169 679T209 696Q232 696 249 679T266 638Q266 616 249 600T209 583Z" />
<glyph unicode="&#x2013;" horiz-adv-x="730" d="M2 212L11 261H724L715 212H2Z" />
<glyph unicode="&#x2014;" horiz-adv-x="842" d="M2 212L11 261H836L827 212H2Z" />
<glyph unicode="&#x2018;" horiz-adv-x="172" d="M97 424L86 441L210 652L231 647L176 442L97 424Z" />
<glyph unicode="&#x2019;" horiz-adv-x="172" d="M73 424L52 430L107 634L186 652L197 636L73 424Z" />
<glyph unicode="&#x201a;" horiz-adv-x="205" d="M-8 -120L-29 -114L26 90L105 108L116 91L-8 -120Z" />
<glyph unicode="&#x201c;" horiz-adv-x="322" d="M237 424L226 441L350 652L371 647L316 442L237 424ZM87 424L76 441L200 652L221 647L166 442L87 424Z" />
<glyph unicode="&#x201d;" horiz-adv-x="322" d="M214 424L193 430L248 634L327 652L338 636L214 424ZM64 424L43 430L98 634L177 652L188 636L64 424Z" />
<glyph unicode="&#x201e;" horiz-adv-x="354" d="M133 -120L111 -114L166 90L245 108L257 91L133 -120ZM-17 -120L-38 -114L17 90L96 108L107 91L-17 -120Z" />
<glyph unicode="&#x2022;" horiz-adv-x="478" d="M239 202Q199 202 166 222T114 275T94 347Q94 388 113 420T166 472T239 492Q279 492 311 473T364 421T384 347Q384 308 364 275T312 222T239 202Z" />
<glyph unicode="&#x2039;" horiz-adv-x="262" d="M141 71L41 248L210 426L240 403L129 248L180 93L141 71Z" />
<glyph unicode="&#x203a;" horiz-adv-x="262" d="M61 71L30 94L142 249L90 404L130 426L230 249L61 71Z" />
</font>
</defs>
</svg>
