<?xml version="1.0" encoding="UTF-8" standalone="no"?>
<!-- Created with Inkscape (http://www.inkscape.org/) -->

<svg
   version="1.1"
   id="svg1"
   width="157.50667"
   height="198.33466"
   viewBox="0 0 157.50667 198.33465"
   xmlns="http://www.w3.org/2000/svg"
   xmlns:svg="http://www.w3.org/2000/svg">
  <defs
     id="defs1" />
  <g
     id="g1"
     transform="translate(0,0.00133171)">
    <g
       id="group-R5"
       style="stroke-width:2;stroke-dasharray:none">
      <path
         id="path2"
         d="m 886.781,931.199 c -48.054,0 -87.152,39.102 -87.152,87.151 0,48 39.098,87.1 87.152,87.1 48.047,0 87.117,-39.1 87.117,-87.1 0,-48.049 -39.07,-87.151 -87.117,-87.151 z m -591.605,0 c -48.047,0 -87.149,39.102 -87.149,87.151 0,48 39.102,87.1 87.149,87.1 48.051,0 87.148,-39.1 87.148,-87.1 0,-48.049 -39.097,-87.151 -87.148,-87.151 z m 341.043,233.461 v 67.65 c 0,25.24 -20.457,45.7 -45.696,45.7 -25.238,0 -45.695,-20.46 -45.695,-45.7 v -67.65 H 56.7539 V 872.898 H 1124.55 V 1164.66 Z M 591.461,197.871 c -48.047,0 -87.145,38.988 -87.145,87.039 0,48.051 39.098,87.149 87.145,87.149 48.055,0 87.125,-39.098 87.125,-87.149 0,-48.051 -39.07,-87.039 -87.125,-87.039 z M 151.133,430.359 C 194.887,348.25 253.684,275.039 326.199,212.531 442.203,112.52 559.922,69.3516 590.656,59.2109 621.395,69.332 739.105,112.43 855.105,212.398 927.66,274.93 986.484,348.191 1030.25,430.359 H 151.133"
         style="fill:#ffffff;fill-opacity:1;fill-rule:nonzero;stroke:none;stroke-width:15;stroke-dasharray:none"
         transform="matrix(0.13333333,0,0,-0.13333333,0,198.33333)" />
      <path
         id="path3"
         d="m 1040.33,449.91 c 55.88,112.86 84.22,242.512 84.22,385.348 v 37.64 H 56.7539 v -37.64 c 0,-142.762 28.3359,-272.363 84.2191,-385.199 3.281,-6.629 6.687,-13.18 10.16,-19.7 h 879.117 c 3.44,6.469 6.82,12.981 10.08,19.551"
         style="fill:#f9b00f;fill-opacity:1;fill-rule:nonzero;stroke:none;stroke-width:15;stroke-dasharray:none"
         transform="matrix(0.13333333,0,0,-0.13333333,0,198.33333)" />
      <path
         id="path4"
         d="m 886.777,1105.45 c -48.05,0 -87.148,-39.1 -87.148,-87.1 0,-48.049 39.098,-87.151 87.148,-87.151 48.051,0 87.121,39.102 87.121,87.151 0,48 -39.07,87.1 -87.121,87.1 z m -591.601,0 c -48.047,0 -87.149,-39.1 -87.149,-87.1 0,-48.049 39.102,-87.151 87.149,-87.151 48.051,0 87.148,39.102 87.148,87.151 0,48 -39.097,87.1 -87.148,87.1 z M 591.461,372.059 c -48.047,0 -87.145,-39.098 -87.145,-87.149 0,-48.051 39.098,-87.039 87.145,-87.039 48.055,0 87.125,38.988 87.125,87.039 0,48.051 -39.07,87.149 -87.125,87.149 z m -58.445,453.89 H 416.84 V 709.77 H 533.016 Z M 532.652,593.527 H 416.477 V 477.309 h 116.175 z m 232.762,0 H 649.266 V 477.309 H 765.414 Z M 881.664,709.77 H 765.414 V 593.527 h 116.25 z m -232.398,0 H 533.016 V 593.527 h 116.25 z M 765.414,825.949 H 649.266 V 709.77 h 116.148 z m 232.465,0 H 881.664 V 709.77 h 116.215 z m 0,-232.422 H 881.664 V 477.309 H 997.879 Z M 300.266,825.949 H 184.051 V 709.77 H 300.266 Z M 416.477,709.77 H 300.266 V 593.527 H 416.477 Z M 300.266,593.527 H 184.051 V 477.309 H 300.266 Z M 1030.25,430.359 c 3.44,6.469 6.82,12.981 10.08,19.551 55.88,112.86 84.22,242.512 84.22,385.348 v 37.64 291.762 H 636.219 v 67.65 c 0,25.24 -20.457,45.7 -45.696,45.7 -25.238,0 -45.699,-20.46 -45.699,-45.7 v -67.65 H 56.7539 v -291.762 -37.64 c 0,-142.762 28.3359,-272.363 84.2191,-385.199 3.281,-6.629 6.687,-13.18 10.16,-19.7 C 194.891,348.25 253.684,275.039 326.199,212.531 442.203,112.52 559.922,69.3516 590.656,59.2109 621.395,69.332 739.105,112.43 855.105,212.398 927.66,274.93 986.484,348.191 1030.25,430.359 Z M 1181.3,1220.29 V 835.258 c 0,-152.262 -30.56,-290.867 -90.83,-411.969 C 1042.13,326.148 974.766,240.18 890.25,167.77 746.57,44.6797 604.297,3.83203 598.313,2.14844 L 590.641,0 582.973,2.16016 C 576.988,3.83984 434.723,44.7695 291.047,167.898 206.531,240.328 139.168,326.309 90.8281,423.43 30.5586,544.516 0,683.074 0,835.258 v 385.032 h 259.406 v 7.26 c 0,29 22.871,42.33 25.114,56.65 h 133.734 c 2.519,-13.94 25.332,-26.53 25.332,-56.65 0,-2.8 0,-5.17 0,-7.26 h 27.906 v 7.44 c 0,45.8 -27.918,52.09 -27.918,81.1 v 28.91 h 39.016 v -22.54 h 25.051 v 22.54 h 39.136 v -22.54 h 24.274 v 22.54 h 19.472 19.473 v -22.54 h 24.274 v 22.54 h 39.136 v -22.54 h 25.051 v 22.54 h 39.016 v -28.91 c 0,-29.01 -27.918,-35.3 -27.918,-81.1 v -7.44 h 28.16 c 0,2.09 0,4.47 0,7.26 0,29 22.875,42.33 25.117,56.65 h 133.734 c 2.52,-13.94 25.329,-26.53 25.329,-56.65 v -7.26 z M 896.566,1358.1 c 0,17.04 25.329,24.19 25.329,54.3 0,16.53 0,22.14 0,22.14 h -38.942 v -22.14 h -33.676 v 22.14 H 810.336 V 1412.4 H 776.66 v 22.14 h -38.945 c 0,0 0,-5.89 0,-22.14 0,-28.99 25.117,-37.26 25.117,-54.3 z m -133.734,-52.56 h 133.734 v 32.2 H 762.832 Z m -344.578,52.56 c 0,17.04 25.332,24.19 25.332,54.3 0,16.53 0,22.14 0,22.14 h -38.945 v -22.14 h -33.676 v 22.14 h -38.942 v -22.14 h -33.675 v 22.14 h -38.942 c 0,0 0,-5.89 0,-22.14 0,-28.99 25.114,-37.26 25.114,-54.3 z M 284.52,1305.54 h 133.734 v 32.2 H 284.52 Z m 374.351,105.54 c 0,17.03 25.121,24.18 25.121,54.3 0,16.53 0,22.13 0,22.13 h -38.941 v -22.13 h -33.676 v 22.13 H 572.43 v -22.13 h -33.672 v 22.13 h -38.945 c 0,0 0,-5.88 0,-22.13 0,-29 25.117,-37.27 25.117,-54.3 z M 524.93,1390.31 H 659 V 1358.1 H 524.93 v 32.21"
         style="fill:#204ba0;fill-opacity:1;fill-rule:nonzero;stroke:none;stroke-width:15;stroke-dasharray:none"
         transform="matrix(0.13333333,0,0,-0.13333333,0,198.33333)" />
    </g>
  </g>
</svg>
